<svg xmlns="http://www.w3.org/2000/svg"><symbol id="super-domes" viewBox="0 0 256 256"><path d="M126.6 3.6l107.1 61.9v123.6l-107.1 61.8-107.1-61.8V65.5L126.6 3.6z"/><path fill="#fff" d="M64.5 180.1a2.1 2.1 0 1 1 0-4.1h10.1v-12.8H64.5a2 2 0 0 1-2.1-2v-40a2 2 0 0 1 2.1-2h13.4c1-28.9 22.5-44.7 48.7-44.7s47.7 15.8 48.8 44.7h13.4a1.9 1.9 0 0 1 2 2v40a1.9 1.9 0 0 1-2 2h-10.2V176h10.2a2.1 2.1 0 0 1 0 4.1zm2-56.9v36h120.2v-36zm12.2 40V176h13v-12.8zm3.2-44h89.4c-1-26.2-20.9-40.6-44.7-40.6S83 93 81.9 119.2zm13.8 44V176h20.4v-12.8zm24.4 0V176h13v-12.8zm55-13.8h-49.5a2 2 0 0 1 0-4h49.5a2 2 0 1 1 0 4zm-37.9 13.8V176h20.3v-12.8zm24.3 0V176h13v-12.8z"/></symbol><symbol id="mecha-stilts" viewBox="0 0 256 256"><path d="M126.9 3.6L234 65.5v123.6l-107.1 61.8-107.1-61.8V65.5L126.9 3.6z"/><path fill="#fff" d="M68.2 175a1.9 1.9 0 0 1-2-2v-24.6H39.4a2.1 2.1 0 0 1 0-4.1h15.2v-13.2a1.9 1.9 0 0 1 2-2h8a64.6 64.6 0 0 1 62.1-49.4c.2-.2.4-.2.8 0a64.4 64.4 0 0 1 61.8 49.4h7.9a1.9 1.9 0 0 1 2 2v13.2h15.2a2.1 2.1 0 1 1 0 4.1h-26.8V173a1.9 1.9 0 0 1-2 2zm-9.5-41.8v11.1h136.4v-11.1zM122.8 84c-25.9 1.6-47.7 20.5-54 45.1h21.8zm-52.5 64.4v22.5h54.6v-22.5zm54.6-60.3l-29.3 41h29.3zm4-4.3v45.3H185a60.3 60.3 0 0 0-56.1-45.3zm0 64.6v22.5h9.2v-22.5zm13.2 0v22.5h41.5v-22.5z"/></symbol><symbol id="space-bubbles" viewBox="0 0 256 256"><path d="M128.1 3.6l107 61.9v123.6l-107 61.8L21 189.1V65.5L128.1 3.6z"/><path fill="#fff" d="M67.6 182.4l-4.7-6.7a2.1 2.1 0 0 1 .2-2.4L80 153.4h-8.3a1.9 1.9 0 0 1-2.1-2v-14.7a1.9 1.9 0 0 1 2.1-2h11.7a57.3 57.3 0 0 1-2.2-15.4 48.2 48.2 0 0 1 48.1-48c26.2 0 48 21.8 48 48a50.4 50.4 0 0 1-2.3 15.4h11.8a1.9 1.9 0 0 1 2 2v14.7a1.9 1.9 0 0 1-2 2h-10.4l16.7 19.9a2.1 2.1 0 0 1 0 2.4l-4.7 6.7a2.1 2.1 0 0 1-2.6.6l-9.8-5H80l-9.8 5a2.2 2.2 0 0 1-2.6-.6zm30.9-29H85.1l-17.9 21.1 2.8 4.1 34.3-18.1zm-24.8-14.6v10.5h111.1v-10.5zm14-4.1h83.1a49.6 49.6 0 0 0 2.4-15.4 44 44 0 0 0-87.9 0c0 5.3.4 10.7 2.4 15.4zm19.5 29l-19.3 10.2h27.6zm-3.5-10.3l17.1 20.5h14.6l17.1-20.5zm45.3 10.3l-8.3 10.2h27.6zm22.2-10.3h-13.4l-6.1 7.1 34.5 18.1 2.8-3.9z"/></symbol></svg>