<svg xmlns="http://www.w3.org/2000/svg"><symbol id="mecha-stilts" viewBox="0 0 256 256"><path d="M124.9 129.1v-41l-29.3 41h29.3zM122.8 84c-25.9 1.6-47.7 20.5-54 45.1h21.8zm6.1-.2v45.3H185a60.3 60.3 0 0 0-56.1-45.3zm-58.6 64.6h54.6v22.54H70.3zm71.8 0h41.4v22.54h-41.4zm-13.2 0h9.1v22.54h-9.1zm-70.2-15.2h136.5v11.17H58.7z"/><path d="M126.9 3.6L19.8 65.5v123.6l107.1 61.8L234 189.1V65.5zm87.5 144.8h-26.8V173a1.9 1.9 0 0 1-2 2H68.2a1.9 1.9 0 0 1-2-2v-24.6H39.4a2.1 2.1 0 0 1 0-4.1h15.2v-13.2a1.9 1.9 0 0 1 2-2h8a64.6 64.6 0 0 1 62.1-49.4c.2-.2.4-.2.8 0a64.4 64.4 0 0 1 61.8 49.4h7.9a1.9 1.9 0 0 1 2 2v13.2h15.2a2.1 2.1 0 1 1 0 4.1z"/></symbol><symbol id="super-domes" viewBox="0 0 256 256"><path d="M120.1 163.2h13v12.79h-13zm-24.4 0H116v12.79H95.7zm41.5 0h20.3v12.79h-20.3zm-10.6-84.6c-23.7 0-43.6 14.4-44.7 40.6h89.4c-1-26.2-20.9-40.6-44.7-40.6zm-47.9 84.6h13v12.79h-13zm-12.2-4h120.2v-36H66.5zm59.1-13.8h49.5a2 2 0 1 1 0 4h-49.5a2 2 0 0 1 0-4z"/><path d="M126.6 3.6L19.5 65.5v123.6l107.1 61.8 107.1-61.8V65.5zm64.2 157.6a1.9 1.9 0 0 1-2 2h-10.2V176h10.2a2.1 2.1 0 0 1 0 4.1H64.5a2.1 2.1 0 1 1 0-4.1h10.1v-12.8H64.5a2 2 0 0 1-2.1-2v-40a2 2 0 0 1 2.1-2h13.4c1-28.9 22.5-44.7 48.7-44.7s47.7 15.8 48.8 44.7h13.4a1.9 1.9 0 0 1 2 2z"/><path d="M161.5 163.2h13v12.79h-13z"/></symbol><symbol id="space-bubbles" viewBox="0 0 256 256"><path d="M98.5 153.4H85.1l-17.9 21.1 2.8 4.1 34.3-18.1-5.8-7.1zm5.2 0l17.1 20.5h14.6l17.1-20.5h-48.8zm67.1-18.7a49.6 49.6 0 0 0 2.4-15.4 44 44 0 0 0-87.9 0c0 5.3.4 10.7 2.4 15.4zm-97.1 4.1h111.1v10.56H73.7zm14.2 35.1h27.6l-8.3-10.2-19.3 10.2zm52.8 0h27.6L149 163.7l-8.3 10.2z"/><path d="M128.1 3.6L21 65.5v123.6l107.1 61.8 107-61.8V65.5zm65 172.1l-4.7 6.7a2.1 2.1 0 0 1-2.6.6l-9.8-5H80l-9.8 5a2.2 2.2 0 0 1-2.6-.6l-4.7-6.7a2.1 2.1 0 0 1 .2-2.4L80 153.4h-8.3a1.9 1.9 0 0 1-2.1-2v-14.7a1.9 1.9 0 0 1 2.1-2h11.7a57.3 57.3 0 0 1-2.2-15.4 48.2 48.2 0 0 1 48.1-48c26.2 0 48 21.8 48 48a50.4 50.4 0 0 1-2.3 15.4h11.8a1.9 1.9 0 0 1 2 2v14.7a1.9 1.9 0 0 1-2 2h-10.4l16.7 19.9a2.1 2.1 0 0 1 0 2.4z"/><path d="M157.8 153.4l-6.1 7.1 34.5 18.1 2.8-3.9-17.8-21.3h-13.4z"/></symbol></svg>